<?xml version="1.0" encoding="UTF-8" standalone="no"?>
<!-- Created with Inkscape (http://www.inkscape.org/) -->

<svg
   xmlns:ns0="http://www.iki.fi/pav/software/textext/"
   xmlns:dc="http://purl.org/dc/elements/1.1/"
   xmlns:cc="http://creativecommons.org/ns#"
   xmlns:rdf="http://www.w3.org/1999/02/22-rdf-syntax-ns#"
   xmlns:svg="http://www.w3.org/2000/svg"
   xmlns="http://www.w3.org/2000/svg"
   xmlns:sodipodi="http://sodipodi.sourceforge.net/DTD/sodipodi-0.dtd"
   xmlns:inkscape="http://www.inkscape.org/namespaces/inkscape"
   width="96.781311mm"
   height="49.392906mm"
   viewBox="0 0 342.92591 175.01423"
   id="svg7401"
   version="1.1"
   inkscape:version="0.91 r13725"
   sodipodi:docname="superposition.svg">
  <sodipodi:namedview
     id="base"
     pagecolor="#ffffff"
     bordercolor="#666666"
     borderopacity="1.0"
     inkscape:pageopacity="0.0"
     inkscape:pageshadow="2"
     inkscape:zoom="2.4845017"
     inkscape:cx="119.13859"
     inkscape:cy="73.401541"
     inkscape:document-units="px"
     inkscape:current-layer="g7614"
     showgrid="false"
     fit-margin-top="0"
     fit-margin-left="0"
     fit-margin-right="0"
     fit-margin-bottom="0"
     inkscape:window-width="1280"
     inkscape:window-height="751"
     inkscape:window-x="0"
     inkscape:window-y="1"
     inkscape:window-maximized="1" />
  <defs
     id="defs7403" />
  <metadata
     id="metadata7406">
    <rdf:RDF>
      <cc:Work
         rdf:about="">
        <dc:format>image/svg+xml</dc:format>
        <dc:type
           rdf:resource="http://purl.org/dc/dcmitype/StillImage" />
        <dc:title />
      </cc:Work>
    </rdf:RDF>
  </metadata>
  <g
     transform="translate(-135.8889,-479.55817)"
     id="layer1"
     inkscape:groupmode="layer"
     inkscape:label="Layer 1">
    <g
       transform="translate(0,-2.7599276)"
       id="g7635">
      <path
         inkscape:connector-curvature="0"
         id="path7383"
         style="fill:none;stroke:#f1b344;stroke-width:1.50434899;stroke-linecap:butt;stroke-linejoin:miter;stroke-miterlimit:10;stroke-dasharray:none;stroke-opacity:1"
         d="m 135.89097,590.96847 15.46406,-0.0425 0,-14.892 36.05358,-0.0214 0.1119,-15.40378 72.09635,0.008 -0.0243,-14.14904 18.0754,0.0479" />
      <path
         inkscape:connector-curvature="0"
         id="path7385"
         style="fill:none;stroke:#000000;stroke-width:1.45333517;stroke-linecap:butt;stroke-linejoin:miter;stroke-miterlimit:10;stroke-dasharray:none;stroke-opacity:1"
         d="m 135.89427,590.96851 151.50297,-0.0408" />
      <path
         inkscape:connector-curvature="0"
         id="path7387"
         style="fill:#000000;fill-opacity:1;fill-rule:nonzero;stroke:none"
         d="m 288.90178,589.42272 3.0089,1.50414 -6.01635,3.00999 1.5033,-3.00913 -1.50499,-3.00829" />
      <text
         xml:space="preserve"
         style="font-style:normal;font-weight:normal;font-size:40px;line-height:125%;font-family:sans-serif;letter-spacing:0px;word-spacing:0px;fill:#000000;fill-opacity:1;stroke:none;stroke-width:1px;stroke-linecap:butt;stroke-linejoin:miter;stroke-opacity:1"
         x="196.47467"
         y="582.13617"
         id="text7498"
         sodipodi:linespacing="125%"><tspan
           sodipodi:role="line"
           id="tspan7500"
           x="196.47467"
           y="582.13617"
           style="font-style:normal;font-variant:normal;font-weight:normal;font-stretch:normal;font-size:17.5px;line-height:125%;font-family:sans-serif;-inkscape-font-specification:'sans-serif, Normal';text-align:start;writing-mode:lr-tb;text-anchor:start" /></text>
      <g
         id="content"
         transform="matrix(1.5105725,0,0,-1.5105725,-123.5545,1570.7298)"
         xml:space="preserve"
         stroke-miterlimit="10.433"
         font-style="normal"
         font-variant="normal"
         font-weight="normal"
         font-stretch="normal"
         font-size-adjust="none"
         letter-spacing="normal"
         word-spacing="normal"
         ns0:text="$u(t)$"
         ns0:preamble=""
         style="font-style:normal;font-variant:normal;font-weight:normal;font-stretch:normal;letter-spacing:normal;word-spacing:normal;text-anchor:start;fill:none;fill-opacity:1;fill-rule:evenodd;stroke:#000000;stroke-linecap:butt;stroke-linejoin:miter;stroke-miterlimit:10.43299961;stroke-dasharray:none;stroke-dashoffset:0;stroke-opacity:1"><path
           style="fill:#000000;stroke-width:0"
           inkscape:connector-curvature="0"
           d="m 226.92,657.79 0.01,-0.04 0.02,-0.03 0.01,-0.04 0.01,-0.03 0.02,-0.04 0.02,-0.03 0.02,-0.03 0.02,-0.03 0.02,-0.03 0.02,-0.03 0.02,-0.03 0.03,-0.03 0.02,-0.02 0.03,-0.03 0.03,-0.02 0.03,-0.02 0.03,-0.03 0.03,-0.02 0.03,-0.01 0.03,-0.02 0.03,-0.02 0.04,-0.01 0.03,-0.02 0.04,-0.01 0.03,-0.01 0.04,-0.01 0.04,-0.01 0.03,0 0.04,-0.01 0.04,0 0.04,0 0.04,0 c 0.35,0 0.58,0.22 0.74,0.54 0.17,0.36 0.3,0.97 0.3,0.99 0,0.1 -0.09,0.1 -0.12,0.1 -0.1,0 -0.11,-0.04 -0.14,-0.18 -0.14,-0.56 -0.33,-1.24 -0.75,-1.24 -0.21,0 -0.31,0.13 -0.31,0.46 0,0.22 0.12,0.69 0.2,1.03 l 0.28,1.08 c 0.03,0.15 0.13,0.52 0.17,0.67 0.05,0.23 0.15,0.61 0.15,0.67 0,0.18 -0.14,0.27 -0.29,0.27 -0.05,0 -0.31,-0.01 -0.39,-0.35 -0.19,-0.73 -0.63,-2.46 -0.75,-2.99 -0.01,-0.04 -0.41,-0.84 -1.14,-0.84 -0.51,0 -0.61,0.45 -0.61,0.82 0,0.56 0.28,1.34 0.54,2.02 0.11,0.3 0.16,0.44 0.16,0.63 0,0.45 -0.31,0.82 -0.81,0.82 -0.95,0 -1.32,-1.45 -1.32,-1.53 0,-0.1 0.1,-0.1 0.12,-0.1 0.1,0 0.11,0.02 0.16,0.17 0.25,0.87 0.63,1.24 1.01,1.24 0.09,0 0.25,-0.01 0.25,-0.33 0,-0.24 -0.11,-0.53 -0.17,-0.68 -0.37,-0.98 -0.58,-1.6 -0.58,-2.08 0,-0.95 0.69,-1.19 1.23,-1.19 0.65,0 1.01,0.44 1.18,0.66 z"
           id="path4242" /><path
           style="fill:#000000;stroke-width:0"
           inkscape:connector-curvature="0"
           d="m 232.44,654.85 0,0.01 0,0 0,0 -0.01,0.01 0,0 0,0 0,0.01 0,0 0,0 0,0.01 -0.01,0 0,0.01 0,0 -0.01,0.01 0,0 0,0.01 -0.01,0.01 -0.01,0 0,0.01 0,0 -0.01,0.01 0,0 0,0 -0.01,0.01 0,0 -0.01,0.01 0,0 -0.01,0.01 0,0 -0.01,0.01 0,0 -0.01,0.01 0,0.01 -0.01,0 0,0.01 -0.01,0.01 -0.01,0 0,0.01 -0.01,0.01 -0.01,0 -0.01,0.01 0,0.01 c -1.25,1.25 -1.57,3.13 -1.57,4.65 0,1.73 0.38,3.45 1.61,4.7 0.13,0.12 0.13,0.14 0.13,0.17 0,0.07 -0.04,0.09 -0.1,0.09 -0.1,0 -1,-0.67 -1.59,-1.93 -0.51,-1.09 -0.63,-2.2 -0.63,-3.03 0,-0.78 0.11,-1.98 0.66,-3.1 0.6,-1.22 1.46,-1.87 1.56,-1.87 0.06,0 0.1,0.03 0.1,0.1 z"
           id="path4244" /><path
           style="fill:#000000;stroke-width:0"
           inkscape:connector-curvature="0"
           d="m 235.06,661.21 0.94,0 c 0.2,0 0.3,0 0.3,0.2 0,0.11 -0.1,0.11 -0.28,0.11 l -0.88,0 c 0.36,1.41 0.41,1.61 0.41,1.66 0,0.17 -0.12,0.27 -0.29,0.27 -0.03,0 -0.3,-0.01 -0.39,-0.35 l -0.39,-1.58 -0.94,0 c -0.2,0 -0.3,0 -0.3,-0.19 0,-0.12 0.08,-0.12 0.28,-0.12 l 0.88,0 c -0.72,-2.82 -0.76,-2.99 -0.76,-3.17 0,-0.54 0.38,-0.91 0.92,-0.91 1.01,0 1.58,1.45 1.58,1.53 0,0.1 -0.08,0.1 -0.12,0.1 -0.09,0 -0.1,-0.04 -0.15,-0.14 -0.43,-1.04 -0.96,-1.28 -1.29,-1.28 -0.21,0 -0.31,0.13 -0.31,0.46 0,0.24 0.02,0.31 0.06,0.48 z"
           id="path4246" /><path
           style="fill:#000000;stroke-width:0"
           inkscape:connector-curvature="0"
           d="m 239.49,659.72 0,0.07 0,0.08 0,0.08 -0.01,0.08 0,0.17 -0.02,0.17 -0.01,0.18 -0.02,0.19 -0.03,0.2 -0.03,0.2 -0.04,0.2 -0.05,0.21 -0.05,0.21 -0.07,0.21 -0.06,0.21 -0.08,0.21 -0.05,0.11 -0.04,0.11 -0.05,0.1 -0.05,0.11 c -0.6,1.22 -1.45,1.86 -1.56,1.86 -0.06,0 -0.09,-0.03 -0.09,-0.09 0,-0.03 0,-0.05 0.19,-0.23 0.97,-0.99 1.54,-2.57 1.54,-4.64 0,-1.7 -0.37,-3.45 -1.61,-4.7 -0.12,-0.12 -0.12,-0.14 -0.12,-0.17 0,-0.06 0.03,-0.1 0.09,-0.1 0.11,0 1,0.68 1.59,1.94 0.51,1.09 0.63,2.19 0.63,3.03 z"
           id="path4248" /></g>    </g>
    <g
       id="g7614">
      <g
         id="g7584">
        <path
           sodipodi:nodetypes="cccc"
           d="m 322.7951,523.4774 15.46406,-0.0425 0,-14.892 125.70462,-0.0214"
           style="fill:none;stroke:#f1b344;stroke-width:1.50434899;stroke-linecap:butt;stroke-linejoin:miter;stroke-miterlimit:10;stroke-dasharray:none;stroke-opacity:1"
           id="path7383-9"
           inkscape:connector-curvature="0" />
        <path
           d="m 322.7984,523.47744 151.50297,-0.0408"
           style="fill:none;stroke:#000000;stroke-width:1.45333517;stroke-linecap:butt;stroke-linejoin:miter;stroke-miterlimit:10;stroke-dasharray:none;stroke-opacity:1"
           id="path7385-4"
           inkscape:connector-curvature="0" />
        <path
           d="m 475.80591,521.93165 3.0089,1.50414 -6.01635,3.00999 1.5033,-3.00913 -1.50499,-3.00829"
           style="fill:#000000;fill-opacity:1;fill-rule:nonzero;stroke:none"
           id="path7387-8"
           inkscape:connector-curvature="0" />
      </g>
      <g
         id="g7590"
         transform="translate(-0.73184209,1.5966187)">
        <path
           sodipodi:nodetypes="cccc"
           d="m 323.52681,586.02302 44.75848,-0.11515 0,-14.81935 96.28394,-0.0214"
           style="fill:none;stroke:#f1b344;stroke-width:1.50434899;stroke-linecap:butt;stroke-linejoin:miter;stroke-miterlimit:10;stroke-dasharray:none;stroke-opacity:1"
           id="path7383-9-8"
           inkscape:connector-curvature="0" />
        <path
           sodipodi:nodetypes="cc"
           d="m 323.53011,585.94414 151.50298,-0.0408"
           style="fill:none;stroke:#000000;stroke-width:1.45333517;stroke-linecap:butt;stroke-linejoin:miter;stroke-miterlimit:10;stroke-dasharray:none;stroke-opacity:1"
           id="path7385-4-6"
           inkscape:connector-curvature="0" />
        <path
           sodipodi:nodetypes="ccccc"
           d="m 476.53763,584.39835 3.0089,1.50414 -6.01635,3.00999 1.5033,-3.00913 -1.50499,-3.00829"
           style="fill:#000000;fill-opacity:1;fill-rule:nonzero;stroke:none"
           id="path7387-8-9"
           inkscape:connector-curvature="0" />
      </g>
      <g
         id="g7596"
         transform="translate(-1.7431533,-13.637059)">
        <path
           sodipodi:nodetypes="cccc"
           d="m 324.53689,665.32 123.0453,-0.11515 0,-14.81935 17.61833,-0.0214"
           style="fill:none;stroke:#f1b344;stroke-width:1.50434899;stroke-linecap:butt;stroke-linejoin:miter;stroke-miterlimit:10;stroke-dasharray:none;stroke-opacity:1"
           id="path7383-9-8-4"
           inkscape:connector-curvature="0" />
        <path
           sodipodi:nodetypes="cc"
           d="m 324.54019,665.24112 151.50299,-0.0408"
           style="fill:none;stroke:#000000;stroke-width:1.45333517;stroke-linecap:butt;stroke-linejoin:miter;stroke-miterlimit:10;stroke-dasharray:none;stroke-opacity:1"
           id="path7385-4-6-6"
           inkscape:connector-curvature="0" />
        <path
           sodipodi:nodetypes="ccccc"
           d="m 477.54772,663.69533 3.0089,1.50414 -6.01635,3.00999 1.5033,-3.00913 -1.50499,-3.00829"
           style="fill:#000000;fill-opacity:1;fill-rule:nonzero;stroke:none"
           id="path7387-8-9-2"
           inkscape:connector-curvature="0" />
      </g>
      <g
         id="g4407"
         transform="matrix(2.2658578,0,0,-1.9736814,-110.37033,1851.7155)"
         xml:space="preserve"
         stroke-miterlimit="10.433"
         font-style="normal"
         font-variant="normal"
         font-weight="normal"
         font-stretch="normal"
         font-size-adjust="none"
         letter-spacing="normal"
         word-spacing="normal"
         ns0:text="$\\bm{+}$"
         ns0:preamble="/Users/alizarezade/GDrive/Research/Manuel/online-twitter-broadcast/slides/images/preamble_for_textext.tex"
         style="font-style:normal;font-variant:normal;font-weight:normal;font-stretch:normal;letter-spacing:normal;word-spacing:normal;text-anchor:start;fill:none;fill-opacity:1;fill-rule:evenodd;stroke:#000000;stroke-linecap:butt;stroke-linejoin:miter;stroke-miterlimit:10.43299961;stroke-dasharray:none;stroke-dashoffset:0;stroke-opacity:1"><path
           d="m 228.19,659.42 3.08,0 c 0.13,0 0.43,0 0.43,0.3 0,0.31 -0.29,0.31 -0.43,0.31 l -3.08,0 0,3.08 c 0,0.11 0,0.41 -0.3,0.41 -0.31,0 -0.31,-0.29 -0.31,-0.41 l 0,-3.08 -3.08,0 c -0.14,0 -0.43,0 -0.43,-0.31 0,-0.3 0.3,-0.3 0.43,-0.3 l 3.08,0 0,-3.08 c 0,-0.12 0,-0.42 0.3,-0.42 0.31,0 0.31,0.29 0.31,0.42 z"
           id="path4409"
           inkscape:connector-curvature="0"
           style="fill:#000000;stroke-width:0" /></g>      <g
         style="font-style:normal;font-variant:normal;font-weight:normal;font-stretch:normal;letter-spacing:normal;word-spacing:normal;text-anchor:start;fill:none;fill-opacity:1;fill-rule:evenodd;stroke:#000000;stroke-linecap:butt;stroke-linejoin:miter;stroke-miterlimit:10.43299961;stroke-dasharray:none;stroke-dashoffset:0;stroke-opacity:1"
         ns0:preamble="/Users/alizarezade/GDrive/Research/Manuel/online-twitter-broadcast/slides/images/preamble_for_textext.tex"
         ns0:text="$\\bm{+}$"
         word-spacing="normal"
         letter-spacing="normal"
         font-size-adjust="none"
         font-stretch="normal"
         font-weight="normal"
         font-variant="normal"
         font-style="normal"
         stroke-miterlimit="10.433"
         xml:space="preserve"
         transform="matrix(2.2658578,0,0,-1.9736814,-109.96783,1925.7746)"
         id="g4456"><path
           style="fill:#000000;stroke-width:0"
           inkscape:connector-curvature="0"
           id="path4458"
           d="m 228.19,659.42 3.08,0 c 0.13,0 0.43,0 0.43,0.3 0,0.31 -0.29,0.31 -0.43,0.31 l -3.08,0 0,3.08 c 0,0.11 0,0.41 -0.3,0.41 -0.31,0 -0.31,-0.29 -0.31,-0.41 l 0,-3.08 -3.08,0 c -0.14,0 -0.43,0 -0.43,-0.31 0,-0.3 0.3,-0.3 0.43,-0.3 l 3.08,0 0,-3.08 c 0,-0.12 0,-0.42 0.3,-0.42 0.31,0 0.31,0.29 0.31,0.42 z" /></g>      <g
         style="font-style:normal;font-variant:normal;font-weight:normal;font-stretch:normal;letter-spacing:normal;word-spacing:normal;text-anchor:start;fill:none;fill-opacity:1;fill-rule:evenodd;stroke:#000000;stroke-linecap:butt;stroke-linejoin:miter;stroke-miterlimit:10.43299961;stroke-dasharray:none;stroke-dashoffset:0;stroke-opacity:1"
         ns0:preamble="/Users/alizarezade/GDrive/Research/Manuel/online-twitter-broadcast/slides/images/preamble_for_textext.tex"
         ns0:text="$\\bm{=}$"
         word-spacing="normal"
         letter-spacing="normal"
         font-size-adjust="none"
         font-stretch="normal"
         font-weight="normal"
         font-variant="normal"
         font-style="normal"
         stroke-miterlimit="10.433"
         xml:space="preserve"
         transform="matrix(2.2658577,0,0,-2.1201335,-210.18911,1970.7728)"
         id="g4497"><path
           id="path4499"
           d="m 231.29,660.53 0.01,0 0.01,0 0.02,0 0.01,0 0.02,0 0.01,0 0.02,0.01 0.01,0 0.02,0 0.02,0 0.02,0.01 0.01,0 0.02,0 0.02,0.01 0.01,0 0.02,0.01 0.02,0.01 0.01,0.01 0.02,0.01 0.01,0.01 0.02,0.01 0.01,0.01 0,0.01 0.01,0 0.01,0.01 0,0.01 0.01,0.01 0,0.01 0.01,0 0,0.01 0.01,0.01 0,0.01 0,0.01 0.01,0.01 0,0.01 0,0.01 0,0.02 0.01,0.01 0,0.01 0,0.01 0,0.02 0,0.01 c 0,0.31 -0.31,0.31 -0.46,0.31 l -6.71,0 c -0.15,0 -0.46,0 -0.46,-0.31 0,-0.3 0.29,-0.3 0.41,-0.3 z"
           inkscape:connector-curvature="0"
           style="fill:#000000;stroke-width:0" /><path
           id="path4501"
           d="m 231.24,658.31 0.01,0 0.02,0 0.02,0 0.01,0 0.02,0 0.02,0 0.02,0 0.02,0 0.01,0 0.02,0.01 0.02,0 0.02,0 0.02,0.01 0.02,0 0.02,0.01 0.02,0.01 0.01,0 0.02,0.01 0.02,0.01 0.01,0.01 0.02,0.02 0.01,0.01 0.01,0.01 0.01,0 0,0.01 0.01,0.01 0,0.01 0.01,0 0,0.01 0.01,0.01 0,0.01 0.01,0.01 0,0.01 0.01,0.01 0,0.02 0,0.01 0,0.01 0.01,0.01 0,0.01 0,0.02 0,0.01 0,0.02 c 0,0.29 -0.29,0.29 -0.41,0.29 l -6.81,0 c -0.12,0 -0.41,0 -0.41,-0.29 0,-0.31 0.31,-0.31 0.46,-0.31 z"
           inkscape:connector-curvature="0"
           style="fill:#000000;stroke-width:0" /></g>    </g>
  </g>
</svg>
